<?xml version="1.0" encoding="iso-8859-1"?>
<!-- Generator: Adobe Illustrator 19.0.0, SVG Export Plug-In . SVG Version: 6.00 Build 0)  -->
<svg version="1.1" id="Layer_1" xmlns="http://www.w3.org/2000/svg" xmlns:xlink="http://www.w3.org/1999/xlink" x="0px" y="0px"
	 viewBox="0 0 512 512" style="enable-background:new 0 0 512 512;" xml:space="preserve">
<path style="fill:#FCCC9A;" d="M433.953,3.735C432.302,1.393,429.616,0,426.751,0H85.262c-2.866,0-5.551,1.393-7.202,3.735
	c-1.65,2.344-2.057,5.342-1.094,8.039l1.055,2.945C82.483,27.2,89.013,46.624,94.792,68.292c15.274,57.278,12.682,83.428,7.82,95.28
	c-16.86,41.099-18.771,87.739-18.911,92.032l-0.818,3.133c-0.689,2.639-0.115,5.449,1.552,7.609
	c1.668,2.159,4.242,3.424,6.971,3.424h73.11c0.007-0.002,0.014-0.002,0.021,0c3.038,0,5.716-1.538,7.299-3.877
	c1.639,2.424,4.374,3.877,7.299,3.877h154.332c2.925,0,5.66-1.453,7.299-3.877l0.011-0.017c1.625,2.417,4.358,3.894,7.309,3.894
	h72.523c2.728,0,5.302-1.265,6.971-3.424c1.667-2.159,2.241-4.969,1.552-7.61l-0.817-3.129c-0.145-4.385-2.067-50.972-18.912-92.034
	c-4.862-11.853-7.454-38.003,7.82-95.28c5.778-21.668,12.309-41.092,16.772-53.574l1.055-2.945
	C436.01,9.077,435.602,6.079,433.953,3.735z"/>
<g style="opacity:0.19;">
	<path style="fill:#202121;" d="M374.908,265.876l-0.011,0.017c-1.639,2.424-4.372,3.877-7.299,3.877h14.619
		C379.266,269.769,376.532,268.292,374.908,265.876z"/>
	<path style="fill:#202121;" d="M118.567,266.345c-1.668-2.159-2.24-4.969-1.552-7.609l0.817-3.133
		c0.14-4.293,2.052-50.933,18.912-92.032c4.861-11.853,7.454-38.003-7.82-95.28c-5.779-21.668-12.309-41.092-16.773-53.574
		l-1.055-2.945c-0.965-2.697-0.557-5.695,1.095-8.039C113.844,1.393,116.53,0,119.394,0H85.262c-2.866,0-5.551,1.393-7.202,3.735
		c-1.65,2.344-2.057,5.342-1.094,8.039l1.055,2.945C82.483,27.2,89.013,46.624,94.792,68.292
		c15.274,57.278,12.682,83.428,7.82,95.28c-16.86,41.099-18.771,87.739-18.911,92.032l-0.818,3.133
		c-0.689,2.639-0.115,5.449,1.552,7.609c1.668,2.159,4.242,3.424,6.971,3.424h34.134
		C122.81,269.769,120.235,268.504,118.567,266.345z"/>
	<path style="fill:#202121;" d="M205.968,265.892c-1.582,2.339-4.262,3.877-7.298,3.877h14.597
		C210.342,269.769,207.608,268.317,205.968,265.892z"/>
</g>
<g style="opacity:0.19;">
	<path style="fill:#202121;" d="M268.858,211.603c-4.327,0-7.833,3.507-7.833,7.835v7.628c0,4.325,3.505,7.833,7.833,7.833
		c4.325,0,7.832-3.507,7.832-7.833v-7.628C276.691,215.112,273.183,211.603,268.858,211.603z"/>
	<path style="fill:#202121;" d="M177.289,235.18c-2.421-3.583-7.289-4.525-10.875-2.105c-3.584,2.422-4.527,7.292-2.104,10.878
		l17.995,26.631c1.513,2.238,3.983,3.448,6.497,3.448c1.51,0,3.035-0.434,4.379-1.342c3.584-2.424,4.526-7.293,2.105-10.874
		L177.289,235.18z"/>
	<path style="fill:#202121;" d="M371.885,233.075c-3.585-2.419-8.454-1.477-10.875,2.105l-17.996,26.635
		c-2.421,3.582-1.479,8.451,2.105,10.874c1.344,0.908,2.869,1.342,4.379,1.342c2.513,0,4.982-1.208,6.497-3.448l17.995-26.631
		C376.41,240.367,375.468,235.498,371.885,233.075z"/>
	<path style="fill:#202121;" d="M389.213,46.004c-3.661-2.305-8.497-1.202-10.799,2.458L363.833,71.65
		c-2.491,2.622-18.388,18.279-43.409,19.659c-10.047,0.397-30.943-1.375-43.733-20.802V29.965c0-4.327-3.507-7.832-7.832-7.832
		c-4.327,0-7.833,3.505-7.833,7.832v40.541c-12.035,18.299-31.038,20.975-41.677,20.877c-26.25-0.595-42.964-17.096-45.463-19.73
		l-14.583-23.189c-2.301-3.662-7.138-4.766-10.801-2.46c-3.661,2.301-4.764,7.138-2.46,10.798l14.957,23.786
		c0.21,0.334,0.444,0.65,0.7,0.946c0.796,0.923,17.725,20.14,46.925,24.611c0.621,0.117,3.709,0.657,8.343,0.835
		c1.262,0.061,2.537,0.099,3.837,0.099c8.557,0,16.253-1.232,22.875-3.662c0.688-0.25,1.314-0.595,1.88-1.006
		c8.019-3.112,16.209-8.2,23.297-16.351c7.088,8.152,15.28,13.241,23.3,16.353c0.567,0.409,1.191,0.752,1.878,1.004
		c6.622,2.43,14.318,3.662,22.874,3.662c1.3,0,2.575-0.038,3.837-0.099c4.641-0.177,7.73-0.719,8.348-0.836
		c29.198-4.469,46.126-23.686,46.921-24.609c0.256-0.296,0.49-0.612,0.699-0.946l14.959-23.784
		C393.978,53.142,392.876,48.305,389.213,46.004z"/>
	<path style="fill:#202121;" d="M320.502,184.139c25.287-3.907,39.965-20.571,40.654-21.37c2.826-3.278,2.461-8.222-0.813-11.048
		c-3.275-2.828-8.221-2.46-11.047,0.813c-0.142,0.166-14.285,16.218-38.258,16.736c-8.781,0.069-24.386-2.143-34.347-17.009v-34.243
		c0-4.327-3.507-7.833-7.832-7.833c-4.327,0-7.833,3.505-7.833,7.833v34.241c-9.94,14.836-25.496,17.068-34.288,17.013
		c-23.747-0.502-38.197-16.598-38.32-16.738c-2.826-3.274-7.771-3.638-11.047-0.813c-3.274,2.826-3.638,7.77-0.813,11.048
		c0.69,0.798,15.367,17.462,40.654,21.37c0.458,0.088,3.139,0.569,7.205,0.728c1.132,0.056,2.274,0.093,3.439,0.093
		c7.438,0,14.138-1.075,19.914-3.194c0.638-0.234,1.219-0.551,1.754-0.92c6.631-2.59,13.39-6.73,19.333-13.235
		c5.942,6.505,12.702,10.645,19.332,13.237c0.533,0.367,1.115,0.684,1.753,0.918c5.776,2.119,12.475,3.194,19.914,3.194
		c1.165,0,2.308-0.037,3.439-0.093C317.362,184.708,320.043,184.226,320.502,184.139z"/>
</g>
<path style="fill:#6699CC;" d="M436.329,299.017l-0.452-3.32c-1.008-7.42-2.124-14.772-3.32-21.854l-0.376-2.234
	c-0.714-4.238-4.386-7.343-8.687-7.343H88.517c-4.301,0-7.972,3.105-8.687,7.343l-0.376,2.234
	c-1.202,7.134-2.321,14.486-3.321,21.849l-0.453,3.324c-0.342,2.52,0.419,5.067,2.093,6.982c1.672,1.916,4.09,3.015,6.635,3.015
	h343.194c2.544,0,4.963-1.099,6.635-3.015C435.91,304.084,436.673,301.537,436.329,299.017z"/>
<path style="opacity:0.19;fill:#202121;enable-background:new    ;" d="M111.905,305.999c-1.672-1.916-2.435-4.462-2.093-6.982
	l0.453-3.324c1.003-7.364,2.119-14.715,3.321-21.849l0.377-2.234c0.713-4.238,4.386-7.343,8.686-7.343H88.517
	c-4.301,0-7.972,3.105-8.687,7.343l-0.376,2.234c-1.202,7.134-2.321,14.486-3.321,21.849l-0.453,3.324
	c-0.342,2.52,0.419,5.067,2.093,6.982c1.672,1.916,4.09,3.015,6.635,3.015h34.133C115.996,309.014,113.577,307.916,111.905,305.999z
	"/>
<path style="fill:#485D6D;" d="M438.474,300.988l-0.263-1.956c-0.589-4.372-4.319-7.635-8.73-7.635H82.526
	c-4.41,0-8.142,3.262-8.73,7.635l-0.263,1.959c-11.844,88.181-1.107,176.532,2.466,201.509l0.277,1.938
	c0.62,4.341,4.336,7.562,8.72,7.562h146.068c4.275,0,7.932-3.066,8.675-7.275l12.08-68.401c1.676-5.778,5.6-15.716,8.94,3.19
	c0.002,0.011,0.004,0.022,0.007,0.034l11.509,65.177c0.744,4.209,4.402,7.275,8.675,7.275h146.067c4.384,0,8.102-3.224,8.72-7.565
	l0.275-1.938C439.581,477.511,450.304,389.135,438.474,300.988z"/>
<g style="opacity:0.19;">
	<path style="fill:#202121;" d="M110.409,504.438l-0.277-1.938c-3.573-24.977-14.309-113.328-2.465-201.509l0.263-1.959
		c0.587-4.372,4.318-7.635,8.73-7.635H82.526c-4.41,0-8.142,3.262-8.73,7.635l-0.263,1.959
		c-11.844,88.181-1.107,176.532,2.466,201.509l0.277,1.938c0.62,4.341,4.336,7.562,8.72,7.562h34.133
		C114.746,512,111.029,508.779,110.409,504.438z"/>
</g>
<path style="opacity:0.19;fill:#202121;enable-background:new    ;" d="M256.001,428.536v0.002
	c1.522-0.371,3.202,2.176,4.757,10.976c0.002,0.011,0.004,0.022,0.007,0.034l11.509,65.177c0.744,4.209,4.402,7.275,8.675,7.275
	h17.253c0,0-6.057-36.15-11.011-64.228C282.235,419.695,256.001,428.536,256.001,428.536z"/>
<g>
</g>
<g>
</g>
<g>
</g>
<g>
</g>
<g>
</g>
<g>
</g>
<g>
</g>
<g>
</g>
<g>
</g>
<g>
</g>
<g>
</g>
<g>
</g>
<g>
</g>
<g>
</g>
<g>
</g>
</svg>
