<?xml version="1.0" encoding="iso-8859-1"?>
<!-- Generator: Adobe Illustrator 19.0.0, SVG Export Plug-In . SVG Version: 6.00 Build 0)  -->
<svg version="1.1" id="Capa_1" xmlns="http://www.w3.org/2000/svg" xmlns:xlink="http://www.w3.org/1999/xlink" x="0px" y="0px"
	 viewBox="0 0 512 512" style="enable-background:new 0 0 512 512;" xml:space="preserve">
<g>
	<path style="fill:#F5D7B7;" d="M452.836,376.24h-71.077v-38.271h71.077c10.568,0,19.135,8.567,19.135,19.135l0,0
		C471.971,367.672,463.404,376.24,452.836,376.24z"/>
	<path style="fill:#F5D7B7;" d="M405.329,312.535l-60.335,60.335l-32.487-32.487l60.335-60.335c8.971-8.971,23.516-8.971,32.487,0
		l0,0C414.3,289.019,414.3,303.564,405.329,312.535z"/>
	<path style="fill:#F5D7B7;" d="M473.929,414.51h-92.17v-38.27h92.17c10.568,0,19.135,8.567,19.135,19.135l0,0
		C493.065,405.943,484.497,414.51,473.929,414.51z"/>
</g>
<path style="opacity:0.05;enable-background:new    ;" d="M473.929,414.51h-92.17v-38.27h92.17c10.568,0,19.135,8.567,19.135,19.135
	l0,0C493.065,405.943,484.497,414.51,473.929,414.51z"/>
<g>
	<path style="fill:#F5D7B7;" d="M467.777,452.781H381.76V414.51h86.017c10.568,0,19.135,8.567,19.135,19.135l0,0
		C486.912,444.214,478.345,452.781,467.777,452.781z"/>
	<path style="fill:#F5D7B7;" d="M436.109,491.052H381.76v-38.271h54.349c10.568,0,19.135,8.567,19.135,19.135l0,0
		C455.244,482.484,446.677,491.052,436.109,491.052z"/>
</g>
<path style="opacity:0.05;enable-background:new    ;" d="M436.109,491.052H381.76v-38.271h54.349
	c10.568,0,19.135,8.567,19.135,19.135l0,0C455.244,482.484,446.677,491.052,436.109,491.052z"/>
<path style="fill:#F5D7B7;" d="M315.196,491.052H214.407c-96.231,0-174.522-78.29-174.522-174.523V76.112
	C39.886,34.076,73.962,0,115.998,0s76.112,34.076,76.112,76.112v240.416c0,12.295,10.002,22.298,22.297,22.298h100.789
	c42.036,0,76.112,34.077,76.112,76.112C391.308,456.975,357.232,491.052,315.196,491.052z"/>
<path style="opacity:0.1;enable-background:new    ;" d="M192.109,151.038H87.297c-5.378,0-9.741-4.355-9.765-9.733
	C77.269,81.343,75.252,30.767,97.455,2.286c-33.072,8.281-57.569,38.188-57.569,73.826v159.51h152.225v-84.584H192.109z"/>
<path style="opacity:0.1;enable-background:new    ;" d="M438.554,470.735v-17.781c-0.802-0.103-1.615-0.173-2.445-0.173H381.76
	v38.271h53.126C437.252,484.723,438.554,477.879,438.554,470.735z"/>
<rect x="381.761" y="414.51" style="opacity:0.1;enable-background:new    ;" width="56.794" height="38.27"/>
<rect x="381.761" y="376.24" style="opacity:0.1;enable-background:new    ;" width="56.794" height="38.27"/>
<path style="opacity:0.1;enable-background:new    ;" d="M381.76,376.24h56.794v-17.096c0-7.47-1.431-14.608-4.007-21.175H381.76
	L381.76,376.24L381.76,376.24z"/>
<path style="opacity:0.1;enable-background:new    ;" d="M408.636,308.317c-8.373-4.673-18.006-7.348-28.256-7.348h-28.459
	l-39.414,39.414l32.487,32.487l60.335-60.335C406.626,311.238,407.713,309.814,408.636,308.317z"/>
<path style="fill:#E8E9EA;" d="M214.407,512c-107.955,0-195.47-87.515-195.47-195.47V202.24c0-14.218,11.526-25.745,25.745-25.745
	h142.632c14.218,0,25.745,11.526,25.745,25.745v97.793c0,9.815,8.031,17.845,17.846,17.845H380.38
	c22.79,0,41.265,18.475,41.265,41.265v111.592c0,22.79-18.475,41.265-41.265,41.265H214.407z"/>
<path style="opacity:0.1;enable-background:new    ;" d="M213.059,202.24c0-8.099-3.743-15.321-9.59-20.04L18.937,278.951v37.579
	c0,20.72,3.235,40.682,9.208,59.422L213.059,279V202.24z"/>
<path style="opacity:0.15;enable-background:new    ;" d="M230.904,317.879c-9.815,0-17.846-8.031-17.846-17.845V279l-69.865,36.63
	l-28.88,168.818c23.994,14.333,51.313,23.676,80.529,26.579c1.819-0.167,3.613-0.042,5.374,0.456
	c0.311,0.022,0.624,0.038,0.936,0.059l33.497-193.665h-3.745V317.879z"/>
<path style="opacity:0.1;enable-background:new    ;" d="M250.292,512h92.89l47.576-192.803c-3.316-0.859-6.794-1.318-10.379-1.318
	h-82.185L250.292,512z"/>
<path style="opacity:0.1;enable-background:new    ;" d="M380.379,512c3.487,0,6.871-0.437,10.105-1.251
	C73.868,486.09,75.498,292.656,78.878,176.495H44.682c-14.218,0-25.745,11.526-25.745,25.745v114.29
	c0,107.955,87.515,195.47,195.47,195.47H380.379z"/>
<g>
</g>
<g>
</g>
<g>
</g>
<g>
</g>
<g>
</g>
<g>
</g>
<g>
</g>
<g>
</g>
<g>
</g>
<g>
</g>
<g>
</g>
<g>
</g>
<g>
</g>
<g>
</g>
<g>
</g>
</svg>
