<?xml version="1.0" encoding="iso-8859-1"?>
<!-- Generator: Adobe Illustrator 19.0.0, SVG Export Plug-In . SVG Version: 6.00 Build 0)  -->
<svg version="1.1" id="Capa_1" xmlns="http://www.w3.org/2000/svg" xmlns:xlink="http://www.w3.org/1999/xlink" x="0px" y="0px"
	 viewBox="0 0 409.6 409.6" style="enable-background:new 0 0 409.6 409.6;" xml:space="preserve">
<path style="fill:#3A556A;" d="M141.907,305.204H50.478c0.844,1.725,1.646,3.542,2.529,5.164
	c10.912,20.015,24.967,32.078,40.313,32.078h91.477C168.196,342.446,153.141,328.238,141.907,305.204z"/>
<path style="fill:#64798A;" d="M405.561,234.52h-3.728v-14.158c0-0.702-0.571-1.274-1.275-1.274h-53.809
	c-0.704,0-1.275,0.572-1.275,1.274v14.158h-3.728v-14.158c0-2.758,2.245-5.001,5.004-5.001h53.809c2.759,0,5.004,2.244,5.004,5.001
	V234.52z"/>
<polygon style="fill:#D5D6DB;" points="398.962,254.087 225.486,254.087 225.486,228.909 409.6,228.909 "/>
<ellipse style="fill:#64798A;" cx="184.781" cy="204.8" rx="62.838" ry="137.646"/>
<ellipse style="fill:#3A556A;" cx="184.781" cy="204.8" rx="40.689" ry="98.36"/>
<ellipse style="fill:#FFFFFF;" cx="184.781" cy="204.8" rx="33.413" ry="85.135"/>
<path style="fill:#E1E6E9;" d="M53.007,99.233h-4.813C21.577,99.233,0,146.497,0,204.8s21.577,105.567,48.195,105.567h4.813
	C39.241,285.118,30.481,247.206,30.481,204.8C30.481,162.395,39.241,124.482,53.007,99.233z"/>
<path style="fill:#EBF0F3;" d="M339.464,228.909H152.751c1.056,9.126,2.696,17.608,4.809,25.177h171.266L339.464,228.909z"/>
<g>
	<path style="fill:#64798A;" d="M400.423,228.909c0,4.721-11.919,8.548-26.622,8.548c-14.703,0-26.622-3.827-26.622-8.548"/>
	<rect x="243.507" y="254.106" style="fill:#64798A;" width="147.144" height="72.243"/>
</g>
<rect x="234.941" y="326.349" style="fill:#2F4859;" width="164.25" height="7.363"/>
<g>
	<path style="fill:#3A556A;" d="M54.619,342.446H25.043c-2.721,0-4.927-2.206-4.927-4.927v-46.176h34.503V342.446z"/>
	<path style="fill:#3A556A;" d="M293.172,333.703c0,4.828-3.914,8.742-8.742,8.742c-4.828,0-8.742-3.914-8.742-8.742"/>
</g>
<path style="fill:#64798A;" d="M269.079,333.703c0,4.828-3.914,8.742-8.742,8.742c-4.829,0-8.742-3.914-8.742-8.742"/>
<path style="fill:#3A556A;" d="M387.149,333.703c0,4.828-3.914,8.742-8.742,8.742s-8.742-3.914-8.742-8.742"/>
<g>
	<path style="fill:#64798A;" d="M363.055,333.703c0,4.828-3.913,8.742-8.742,8.742c-4.828,0-8.742-3.914-8.742-8.742"/>
	<path style="fill:#64798A;" d="M136.887,342.446H49.961v-37.241h91.852v32.314C141.814,340.24,139.608,342.446,136.887,342.446z"/>
</g>
<path style="fill:#EBF0F3;" d="M121.959,204.8c0-76.02,28.133-137.646,62.838-137.646H93.32c-15.346,0-29.401,12.064-40.311,32.078
	C39.241,124.482,30.481,162.395,30.481,204.8c0,39.682,7.731,75.285,19.997,100.404h91.429
	C129.658,280.085,121.959,244.453,121.959,204.8z"/>
<g>
</g>
<g>
</g>
<g>
</g>
<g>
</g>
<g>
</g>
<g>
</g>
<g>
</g>
<g>
</g>
<g>
</g>
<g>
</g>
<g>
</g>
<g>
</g>
<g>
</g>
<g>
</g>
<g>
</g>
</svg>
