<?xml version="1.0" encoding="iso-8859-1"?>
<!-- Generator: Adobe Illustrator 19.0.0, SVG Export Plug-In . SVG Version: 6.00 Build 0)  -->
<svg version="1.1" id="Capa_1" xmlns="http://www.w3.org/2000/svg" xmlns:xlink="http://www.w3.org/1999/xlink" x="0px" y="0px"
	 viewBox="0 0 512 512" style="enable-background:new 0 0 512 512;" xml:space="preserve">
<path style="fill:#BDC0C3;" d="M160.186,326.186c-6.115,0-11.799-3.148-15.044-8.331L31.467,136.287
	c-13.962-22.299-12.281-51.071,4.182-71.594l23.55-29.358c6.133-7.646,17.303-8.874,24.952-2.739
	c7.646,6.133,8.873,17.305,2.739,24.952L63.34,86.906c-7.023,8.755-7.74,21.03-1.784,30.542l98.63,157.538l98.63-157.537
	c5.956-9.513,5.239-21.788-1.784-30.543l-23.55-29.358c-6.134-7.647-4.908-18.819,2.739-24.952
	c7.648-6.135,18.819-4.907,24.952,2.739l23.55,29.358c16.463,20.523,18.143,49.295,4.182,71.595L175.23,317.854
	C171.985,323.038,166.301,326.186,160.186,326.186z"/>
<path style="opacity:0.1;enable-background:new    ;" d="M42.818,55.756c0.407,0.444,0.837,0.873,1.318,1.266l21.619,17.663
	c1.606,1.313,3.441,2.152,5.34,2.555l15.796-19.691c6.134-7.647,4.908-18.819-2.739-24.952c-7.649-6.135-18.819-4.907-24.952,2.739
	L42.818,55.756z"/>
<path style="opacity:0.1;enable-background:new    ;" d="M277.555,55.756c-0.407,0.444-0.837,0.873-1.318,1.266l-21.618,17.663
	c-1.606,1.313-3.441,2.152-5.34,2.555l-15.796-19.691c-6.134-7.647-4.908-18.819,2.739-24.952
	c7.649-6.135,18.819-4.907,24.952,2.739L277.555,55.756z"/>
<g>
	<path style="fill:#495059;" d="M52.777,28.883l15.399-18.847C77.592-1.489,94.957-3.493,106.302,6.14
		c10.997,9.338,12.535,25.804,3.367,37.025l-15.777,19.31c-4.399,5.384-12.329,6.182-17.713,1.784L54.561,46.596
		C49.177,42.197,48.379,34.267,52.777,28.883z"/>
	<path style="fill:#495059;" d="M267.595,28.883l-15.399-18.847C242.78-1.489,225.415-3.493,214.07,6.14
		c-10.997,9.338-12.535,25.804-3.367,37.025l15.777,19.31c4.399,5.384,12.329,6.182,17.713,1.784l21.618-17.663
		C271.195,42.197,271.993,34.267,267.595,28.883z"/>
</g>
<path style="fill:#7FDBD5;" d="M295.867,512h-30.565c-67.749,0-122.866-55.117-122.866-122.866v-80.698
	c0-9.803,7.947-17.75,17.75-17.75s17.75,7.947,17.75,17.75v80.698c0,48.174,39.193,87.366,87.366,87.366h30.565
	c64.115,0,116.276-52.161,116.276-116.276v-51.788c0-9.803,7.947-17.75,17.75-17.75s17.75,7.947,17.75,17.75v51.788
	C447.643,443.913,379.557,512,295.867,512z"/>
<path style="opacity:0.1;enable-background:new    ;" d="M429.893,290.686c-9.803,0-17.75,7.947-17.75,17.75v43.756
	c5.61,1.733,11.571,2.669,17.75,2.669s12.14-0.936,17.75-2.669v-43.756C447.643,298.633,439.697,290.686,429.893,290.686z"/>
<path style="opacity:0.1;enable-background:new    ;" d="M177.936,357.763v-49.327c0-9.803-7.947-17.75-17.75-17.75
	s-17.75,7.947-17.75,17.75v49.327C152.318,367.082,168.055,367.082,177.936,357.763z"/>
<circle style="fill:#495059;" cx="429.896" cy="271.14" r="60.06"/>
<circle style="fill:#B3E7FF;" cx="429.896" cy="271.14" r="32.28"/>
<path style="opacity:0.1;enable-background:new    ;" d="M476.549,308.944c-61.086,5.2-78.373-72.116-61.56-95.991
	c-25.957,6.629-45.151,30.166-45.151,58.189c0,33.168,26.888,60.055,60.056,60.055C448.733,331.197,465.538,322.517,476.549,308.944
	z"/>
<path style="fill:#B3E7FF;" d="M231.767,256.339l-45.569,72.786c-12.024,19.205-39.999,19.205-52.023,0l-45.569-72.786
	c-6.398-10.22,0.948-23.488,13.006-23.488h117.149C230.818,232.851,238.165,246.119,231.767,256.339z"/>
<path style="fill:#76B7EB;" d="M108.547,288.19l25.628,40.935c12.024,19.205,39.999,19.205,52.023,0l25.628-40.935H108.547z"/>
<path style="opacity:0.1;enable-background:new    ;" d="M134.175,329.125c12.024,19.205,39.999,19.205,52.023,0l9.795-15.646
	c-40.219,24.502-68.247-53.417-75.114-80.628h-19.267c-12.058,0-19.405,13.268-13.006,23.488L134.175,329.125z"/>
<g>
</g>
<g>
</g>
<g>
</g>
<g>
</g>
<g>
</g>
<g>
</g>
<g>
</g>
<g>
</g>
<g>
</g>
<g>
</g>
<g>
</g>
<g>
</g>
<g>
</g>
<g>
</g>
<g>
</g>
</svg>
