<?xml version="1.0" encoding="iso-8859-1"?>
<!-- Generator: Adobe Illustrator 19.0.0, SVG Export Plug-In . SVG Version: 6.00 Build 0)  -->
<svg version="1.1" id="Capa_1" xmlns="http://www.w3.org/2000/svg" xmlns:xlink="http://www.w3.org/1999/xlink" x="0px" y="0px"
	 viewBox="0 0 512 512" style="enable-background:new 0 0 512 512;" xml:space="preserve">
<path style="fill:#775436;" d="M350.979,130.958h5.746c3.724,0,7.264,0.779,10.47,2.175c1.518-7.303,2.321-14.867,2.321-22.621
	C369.517,49.478,320.112,0,259.168,0h-6.336c-60.945,0-110.351,49.478-110.351,110.513c0,7.754,0.804,15.319,2.321,22.622
	c3.207-1.396,6.747-2.176,10.472-2.176h5.745v-16.954h47.44c25.696,0,49.759-13.536,63.207-35.44
	c13.449,21.904,37.512,35.44,63.207,35.44h16.105v16.953H350.979z"/>
<path style="opacity:0.1;enable-background:new    ;" d="M155.274,131.958h4.745c0.553,0,1-0.448,1-1v-16.954h13.655
	c-0.036-1.16-0.061-2.323-0.061-3.492c0-56.665,42.585-103.359,97.452-109.757C267.834,0.262,263.532,0,259.168,0h-6.336
	c-60.945,0-110.351,49.478-110.351,110.513c0,8.111,0.876,16.017,2.532,23.63C148.149,132.744,151.62,131.958,155.274,131.958z"/>
<g>
	<path style="fill:#FFB98A;" d="M161.02,141.866v-10.908h-5.745c-14.444,0-26.156,11.65-26.156,26.021S140.83,183,155.274,183
		h14.477C164.077,169.998,161.02,155.926,161.02,141.866z"/>
	<path style="fill:#FFB98A;" d="M356.726,130.958h-5.746v10.908c0,14.06-3.058,28.132-8.732,41.134h14.478
		c14.444,0,26.154-11.651,26.154-26.021S371.17,130.958,356.726,130.958z"/>
	<path style="fill:#FFB98A;" d="M371.192,254.463h-84.03v-18.622c-9.932,3.814-20.433,5.806-31.163,5.806
		c-10.73,0-21.231-1.992-31.163-5.806v18.623h-84.03c-12.273,0-22.262,9.935-22.262,22.144v4.347h274.91v-4.347
		C393.454,264.397,383.468,254.463,371.192,254.463z"/>
</g>
<g style="opacity:0.1;">
	<path d="M150.921,280.955v-4.347c0-12.21,9.987-22.144,22.262-22.144h-32.377c-12.273,0-22.262,9.935-22.262,22.144v4.347
		L150.921,280.955L150.921,280.955z"/>
</g>
<path style="fill:#FFB98A;" d="M356.726,129.709h-5.746v10.908c0,14.06-3.058,28.132-8.732,41.134h14.478
	c14.444,0,26.154-11.651,26.154-26.021C382.88,141.359,371.17,129.709,356.726,129.709z"/>
<path style="fill:#FFD5B3;" d="M255.999,242.646c-25.366,0-49.469-10.964-67.867-30.872c-17.866-19.331-28.112-45.267-28.112-71.158
	v-24.612c0-1.657,1.343-3,3-3h45.44c24.363,0,47.062-12.119,60.718-32.417c0.558-0.829,1.49-1.326,2.489-1.326
	c0.998,0,1.932,0.497,2.489,1.325c13.656,20.299,36.355,32.417,60.718,32.417h14.105c1.657,0,3,1.343,3,3v24.612
	c0,25.891-10.246,51.827-28.111,71.158C305.469,231.683,281.365,242.646,255.999,242.646z"/>
<g>
	<path style="fill:#775436;" d="M261.564,181.229h-5.979c-6.976,0-12.651-5.675-12.651-12.651v-18.102c0-4.142,3.357-7.5,7.5-7.5
		s7.5,3.358,7.5,7.5v15.753h3.631c4.143,0,7.5,3.358,7.5,7.5S265.707,181.229,261.564,181.229z"/>
	<path style="fill:#775436;" d="M255.999,216.773c-11.685,0-23.366-4.423-32.262-13.273c-2.936-2.921-2.948-7.67-0.026-10.606
		c2.92-2.937,7.669-2.949,10.607-0.027c11.954,11.894,31.408,11.895,43.366,0c2.935-2.92,7.685-2.909,10.606,0.028
		s2.908,7.686-0.028,10.607C279.368,212.348,267.682,216.773,255.999,216.773z"/>
</g>
<path style="fill:#046699;" d="M86.826,506.849c0,2.833,2.317,5.151,5.15,5.151h328.045c2.833,0,5.15-2.318,5.15-5.151V311.045
	H86.826V506.849z"/>
<g>
	<path style="fill:#E6E9ED;" d="M244.411,328.817h-48.127c-3.518,0-7.721-1.669-8.698-2.499l-5.573-5.408
		c-4.08-3.963-10.604-3.865-14.567,0.216c-3.962,4.083-3.864,10.604,0.218,14.567l5.572,5.409
		c5.626,5.461,15.854,8.317,23.049,8.317h48.127v-20.602H244.411z"/>
	<path style="fill:#E6E9ED;" d="M346.73,321.126c-3.962-4.082-10.485-4.18-14.567-0.216l-5.527,5.366
		c-1.025,0.872-5.227,2.54-8.743,2.54h-50.306v20.604h50.306c7.195,0,17.423-2.857,23.047-8.317l5.573-5.409
		C350.596,331.731,350.693,325.209,346.73,321.126z"/>
	<path style="fill:#E6E9ED;" d="M244.411,358.213h-59.706c-3.519,0-8.523-1.915-9.923-3.165l-6.48-5.778
		c-4.246-3.789-10.759-3.414-14.545,0.83c-3.787,4.246-3.416,10.758,0.831,14.545l6.479,5.779
		c5.453,4.863,15.393,8.392,23.638,8.392h59.706L244.411,358.213L244.411,358.213z"/>
	<path style="fill:#E6E9ED;" d="M360.419,350.1c-3.787-4.245-10.299-4.617-14.546-0.83l-6.479,5.778
		c-1.401,1.25-6.404,3.165-9.924,3.165h-61.883v20.603h61.883c8.244,0,18.186-3.529,23.637-8.391l6.482-5.78
		C363.834,360.858,364.205,354.346,360.419,350.1z"/>
	<path style="fill:#E6E9ED;" d="M244.411,388.088h-59.706c-3.941,0-9.082-1.89-10.369-2.913l-6.479-5.151
		c-4.454-3.541-10.935-2.8-14.476,1.653c-3.541,4.454-2.801,10.934,1.652,14.475l6.479,5.151c5.386,4.281,15.14,7.389,23.192,7.389
		h59.706v-20.604H244.411z"/>
	<path style="fill:#E6E9ED;" d="M360.794,381.678c-3.538-4.453-10.02-5.193-14.475-1.653l-6.48,5.151
		c-1.287,1.023-6.429,2.913-10.369,2.913h-61.883v20.604h61.883c8.054,0,17.807-3.108,23.19-7.388l6.482-5.152
		C363.595,392.612,364.335,386.131,360.794,381.678z"/>
	<path style="fill:#E6E9ED;" d="M347.621,416.177c-3.386-4.575-9.834-5.541-14.409-2.157l-5.504,4.073
		c-1.18,0.758-5.804,2.149-9.815,2.149h-50.306v20.603h50.306c6.598,0,16.296-1.921,21.998-6.139l5.573-4.121
		C350.038,427.203,351.004,420.752,347.621,416.177z"/>
	<path style="fill:#E6E9ED;" d="M244.411,420.243h-48.127c-4.014,0-8.637-1.393-9.749-2.101l-5.571-4.121
		c-4.575-3.383-11.026-2.418-14.408,2.157c-3.384,4.575-2.418,11.026,2.156,14.409l5.573,4.121
		c5.704,4.218,15.402,6.139,21.999,6.139h48.127V420.243z"/>
</g>
<path style="fill:#FFFFFF;" d="M244.179,464.128l11.109,11.05c0.195,0.194,0.45,0.291,0.705,0.291c0.255,0,0.51-0.097,0.705-0.291
	l11.111-11.05c0.254-0.252,0.518-0.493,0.777-0.737V311.045H243.41V463.4C243.669,463.643,243.928,463.879,244.179,464.128z"/>
<path style="fill:#E6E9ED;" d="M420.021,279.468H91.977c-2.833,0-5.15,2.318-5.15,5.151v27.895h338.346v-27.895
	C425.172,281.786,422.854,279.468,420.021,279.468z"/>
<g>
	<path style="fill:#48C1E1;" d="M124.882,489.877h-11.521c-4.143,0-7.5-3.358-7.5-7.5s3.357-7.5,7.5-7.5h11.521
		c4.143,0,7.5,3.358,7.5,7.5C132.382,486.52,129.024,489.877,124.882,489.877z"/>
	<path style="fill:#48C1E1;" d="M124.882,465.803h-11.521c-4.143,0-7.5-3.358-7.5-7.5s3.357-7.5,7.5-7.5h11.521
		c4.143,0,7.5,3.358,7.5,7.5S129.024,465.803,124.882,465.803z"/>
	<path style="fill:#48C1E1;" d="M165.868,279.468H91.977c-2.833,0-5.15,2.318-5.15,5.151v27.895h79.042L165.868,279.468
		L165.868,279.468z"/>
	<path style="fill:#48C1E1;" d="M399.134,481.58c0,1.7-1.391,3.09-3.091,3.09h-23.778c-1.7,0-3.091-1.391-3.091-3.09v-23.625
		c0-1.7,1.391-3.09,3.091-3.09h23.778c1.7,0,3.091,1.391,3.091,3.09V481.58z"/>
</g>
<path style="fill:#E6E9ED;" d="M319.747,463.419c-7.027-6.996-16.377-10.848-26.324-10.848c-9.941,0-19.289,3.853-26.318,10.848
	l-11.111,11.05l-11.109-11.05c-7.031-6.996-16.381-10.848-26.324-10.848c-9.945,0-19.295,3.853-26.326,10.848
	c-7.023,6.985-10.889,16.288-10.889,26.187c0,8.202,2.66,15.988,7.564,22.394h134.164c4.914-6.41,7.58-14.197,7.58-22.394
	C330.653,479.713,326.782,470.413,319.747,463.419z M218.132,501.865c-6.682,0-12.1-5.389-12.1-12.037
	c0-6.647,5.418-12.036,12.1-12.036s12.098,5.389,12.098,12.036C230.229,496.477,224.813,501.865,218.132,501.865z M291.304,501.865
	c-6.684,0-12.1-5.389-12.1-12.037c0-6.647,5.416-12.036,12.1-12.036c6.682,0,12.098,5.389,12.098,12.036
	C303.401,496.477,297.985,501.865,291.304,501.865z"/>
<g>
	<path style="fill:#775436;" d="M211.261,159.382c-4.143,0-7.5-3.358-7.5-7.5v-18.446c0-4.142,3.357-7.5,7.5-7.5s7.5,3.358,7.5,7.5
		v18.446C218.761,156.024,215.404,159.382,211.261,159.382z"/>
	<path style="fill:#775436;" d="M300.737,159.382c-4.143,0-7.5-3.358-7.5-7.5v-18.446c0-4.142,3.357-7.5,7.5-7.5s7.5,3.358,7.5,7.5
		v18.446C308.237,156.024,304.88,159.382,300.737,159.382z"/>
</g>
<path style="opacity:0.1;enable-background:new    ;" d="M111.999,506.849v-222.23c0-2.833,2.317-5.151,5.15-5.151H91.977
	c-2.833,0-5.15,2.318-5.15,5.151v222.23c0,2.833,2.317,5.151,5.15,5.151h25.173C114.316,512,111.999,509.682,111.999,506.849z"/>
<g>
</g>
<g>
</g>
<g>
</g>
<g>
</g>
<g>
</g>
<g>
</g>
<g>
</g>
<g>
</g>
<g>
</g>
<g>
</g>
<g>
</g>
<g>
</g>
<g>
</g>
<g>
</g>
<g>
</g>
</svg>
